<svg width="35" height="27" viewBox="0 0 35 27" fill="none" xmlns="http://www.w3.org/2000/svg">
<path d="M14.0019 8.59091H12.8349V7.36364C12.8349 7.03814 12.7119 6.72598 12.4931 6.49582C12.2742 6.26567 11.9774 6.13636 11.6679 6.13636C11.3584 6.13636 11.0616 6.26567 10.8427 6.49582C10.6239 6.72598 10.5009 7.03814 10.5009 7.36364V8.59091H9.33392C9.02442 8.59091 8.72759 8.72021 8.50874 8.95037C8.28989 9.18053 8.16694 9.49269 8.16694 9.81818C8.16694 10.1437 8.28989 10.4558 8.50874 10.686C8.72759 10.9162 9.02442 11.0455 9.33392 11.0455H10.5009V12.2727C10.5009 12.5982 10.6239 12.9104 10.8427 13.1405C11.0616 13.3707 11.3584 13.5 11.6679 13.5C11.9774 13.5 12.2742 13.3707 12.4931 13.1405C12.7119 12.9104 12.8349 12.5982 12.8349 12.2727V11.0455H14.0019C14.3114 11.0455 14.6082 10.9162 14.827 10.686C15.0459 10.4558 15.1688 10.1437 15.1688 9.81818C15.1688 9.49269 15.0459 9.18053 14.827 8.95037C14.6082 8.72021 14.3114 8.59091 14.0019 8.59091Z" fill="black"/>
<path d="M24.5047 11.0455H21.0037C20.6942 11.0455 20.3974 10.9162 20.1786 10.686C19.9597 10.4558 19.8368 10.1437 19.8368 9.81818C19.8368 9.49269 19.9597 9.18053 20.1786 8.95037C20.3974 8.72021 20.6942 8.59091 21.0037 8.59091H24.5047C24.8142 8.59091 25.111 8.72021 25.3299 8.95037C25.5487 9.18053 25.6717 9.49269 25.6717 9.81818C25.6717 10.1437 25.5487 10.4558 25.3299 10.686C25.111 10.9162 24.8142 11.0455 24.5047 11.0455Z" fill="black"/>
<path d="M12.3349 8.59091V9.09091H12.8349H14.0019C14.1704 9.09091 14.3374 9.16109 14.4647 9.29491C14.5928 9.42959 14.6688 9.6174 14.6688 9.81818C14.6688 10.019 14.5928 10.2068 14.4647 10.3415C14.3374 10.4753 14.1704 10.5455 14.0019 10.5455H12.8349H12.3349V11.0455V12.2727C12.3349 12.4735 12.2588 12.6613 12.1307 12.796C12.0035 12.9298 11.8364 13 11.6679 13C11.4994 13 11.3323 12.9298 11.205 12.796C11.077 12.6613 11.0009 12.4735 11.0009 12.2727V11.0455V10.5455H10.5009H9.33392C9.16539 10.5455 8.99833 10.4753 8.87108 10.3415C8.74302 10.2068 8.66694 10.019 8.66694 9.81818C8.66694 9.6174 8.74302 9.42959 8.87108 9.29491C8.99833 9.16109 9.16539 9.09091 9.33392 9.09091H10.5009H11.0009V8.59091V7.36364C11.0009 7.16285 11.077 6.97505 11.205 6.84037C11.3323 6.70654 11.4993 6.63636 11.6679 6.63636C11.8364 6.63636 12.0035 6.70654 12.1307 6.84037C12.2588 6.97505 12.3349 7.16285 12.3349 7.36364V8.59091ZM33.6403 24.368L33.6403 24.368C33.2401 24.9689 32.7212 25.4683 32.1211 25.8327C31.5212 26.1969 30.8542 26.4178 30.167 26.481C29.4799 26.5443 28.7875 26.4487 28.138 26.2001C27.4885 25.9516 26.8965 25.5557 26.4045 25.0385C26.3952 25.0287 26.39 25.0232 26.3856 25.0183C26.3815 25.0139 26.3803 25.0124 26.3807 25.0129L26.3808 25.0128L26.3745 25.0053L20.5819 18.0881L20.432 17.9091H20.1985H14.8012H14.5676L14.4177 18.0883L8.63671 24.9986L8.5966 25.0432C7.70283 25.9784 6.49899 26.499 5.24932 26.5C4.55983 26.4997 3.87788 26.3407 3.25108 26.0331C2.62406 25.7254 2.06657 25.276 1.61893 24.7147C1.17122 24.1534 0.844561 23.4942 0.663379 22.7829C0.482189 22.0716 0.451236 21.3267 0.572867 20.6011L0.58385 20.5356L0.582892 20.5259L2.95933 7.68783L2.95941 7.68784L2.96085 7.67919C3.29791 5.66127 4.29968 3.83776 5.78406 2.52664C7.26781 1.21607 9.13901 0.500612 11.0683 0.5C11.0684 0.5 11.0684 0.5 11.0685 0.5L23.9208 0.5C25.8446 0.503331 27.7104 1.21485 29.1936 2.51692C30.6671 3.81051 31.6709 5.60649 32.0277 7.59921V7.62886L32.036 7.67394L34.4125 20.5243L34.4114 20.5355L34.423 20.6022C34.5358 21.2539 34.5246 21.9228 34.3899 22.5697C34.2553 23.2167 34.0001 23.8278 33.6403 24.368ZM7.65046 24.0193L7.66323 24.0061L7.67501 23.9921L13.7899 16.6915C13.8542 16.6148 13.9317 16.5552 14.0163 16.515C14.1008 16.4748 14.1912 16.4546 14.2819 16.4545C14.282 16.4545 14.282 16.4545 14.282 16.4545H23.9212C25.7644 16.4545 27.5268 15.6843 28.822 14.3221C30.1165 12.9607 30.8396 11.1195 30.8396 9.20455C30.8396 7.28963 30.1165 5.44838 28.822 4.08703C27.5268 2.72483 25.7644 1.95455 23.9212 1.95455L11.0683 1.95455L11.0679 1.95455C9.43611 1.95609 7.86093 2.56295 6.61891 3.66237C5.37748 4.76127 4.54856 6.28122 4.2719 7.95237L4.26518 7.99293V8.00806L1.88415 20.8631L1.88405 20.8631L1.88247 20.8727C1.76053 21.611 1.86412 22.3717 2.17995 23.0464C2.49589 23.7212 3.00949 24.2781 3.65118 24.6327C4.29332 24.9876 5.02842 25.1202 5.74969 25.009C6.47074 24.8978 7.13571 24.5495 7.65046 24.0193ZM31.8466 13.9599L31.6034 12.6433L30.924 13.797C30.182 15.0571 29.1483 16.0943 27.9228 16.8128C26.6975 17.5312 25.3202 17.9079 23.9208 17.9091H23.3085H22.238L22.9251 18.73L27.3305 23.9935L27.3429 24.0083L27.3564 24.0221C27.7438 24.4184 28.2171 24.7145 28.7384 24.8837C29.2598 25.053 29.8127 25.09 30.3511 24.9912L30.3521 24.991C31.25 24.8244 32.0411 24.2915 32.557 23.519C32.9646 22.9087 33.1758 22.1863 33.1711 21.4541H33.2306L33.1215 20.8633L31.8466 13.9599ZM24.5047 10.5455H21.0037C20.8352 10.5455 20.6682 10.4753 20.5409 10.3415C20.4128 10.2068 20.3368 10.019 20.3368 9.81818C20.3368 9.6174 20.4128 9.42959 20.5409 9.29491C20.6682 9.16109 20.8352 9.09091 21.0037 9.09091H24.5047C24.6732 9.09091 24.8403 9.16109 24.9675 9.29491C25.0956 9.42959 25.1717 9.6174 25.1717 9.81818C25.1717 10.019 25.0956 10.2068 24.9675 10.3415C24.8403 10.4753 24.6732 10.5455 24.5047 10.5455Z" stroke="black"/>
</svg>
