<svg width="18" height="18" viewBox="0 0 18 18" fill="none" xmlns="http://www.w3.org/2000/svg">
<rect width="18" height="18" rx="9" fill="#028960"/>
<path d="M9 13.5C8.173 13.5 7.5 12.827 7.5 12L7.5265 10.4735L6.009 10.5C5.173 10.5 4.5 9.827 4.5 9C4.5 8.173 5.173 7.5 6 7.5L7.5265 7.473L7.5 6.009C7.5 5.173 8.173 4.5 9 4.5C9.827 4.5 10.5 5.173 10.5 6L10.5275 7.473L12.009 7.5C12.827 7.5 13.5 8.173 13.5 9C13.5 9.827 12.827 10.5 12 10.5L10.5275 10.4735L10.5 12.009C10.5 12.827 9.827 13.5 9 13.5ZM8.5 9.5V12.009C8.5 12.2755 8.7245 12.5 9 12.5C9.2755 12.5 9.5 12.2755 9.5 12V9.5H12.009C12.2755 9.5 12.5 9.2755 12.5 9C12.5 8.7245 12.2755 8.5 12 8.5H9.5V6C9.5 5.7155 9.2755 5.5 9 5.5C8.7245 5.5 8.5 5.7245 8.5 6V8.5H6C5.7155 8.5 5.5 8.7245 5.5 9C5.5 9.2755 5.7245 9.5 6 9.5H8.5Z" fill="white"/>
</svg>
